<svg xmlns="http://www.w3.org/2000/svg" width="137.5" height="30.234" viewBox="0 0 137.5 30.234">
  <g id="Group_5" data-name="Group 5" transform="translate(-108.138 -711.641)">
    <g id="Group_3" data-name="Group 3" transform="translate(108.138 711.641)">
      <g id="Group_2" data-name="Group 2" transform="translate(0 14.266)">
        <path id="Path_2" data-name="Path 2" d="M113.017,799.936c5,4.8,12.35,6.485,14.233,6.787A15.975,15.975,0,0,0,108.235,793.4,14.008,14.008,0,0,0,127.384,808c0-.008,0-.015,0-.022C117.008,806.715,113.017,799.936,113.017,799.936Z" transform="translate(-108.138 -793.069)" fill="#1b763b"/>
        <path id="Path_3" data-name="Path 3" d="M205.965,793.429a15.985,15.985,0,0,0-13.05,3.067,17.148,17.148,0,0,1,3.437,4.392c2.133-1.209,5.44-3.249,6.6-4.914-1.458,2.656-3.187,3.872-6.111,5.892a16.956,16.956,0,0,1,1.528,5.68,13.994,13.994,0,0,0,7.687-12.492A14.158,14.158,0,0,0,205.965,793.429Z" transform="translate(-178.062 -793.098)" fill="#8bc53f"/>
      </g>
      <path id="Path_4" data-name="Path 4" d="M147.665,720.671l1.014,5.937a15.137,15.137,0,0,1,2.116,1.154l-1.877-7.358c1.413-.654,2.278-2.761,1.806-4.981-.523-2.46-2.49-4.127-4.394-3.722s-3.023,2.727-2.5,5.187C144.3,719.109,145.949,720.682,147.665,720.671Z" transform="translate(-137.471 -711.641)" fill="#f6921e"/>
      <path id="Path_5" data-name="Path 5" d="M195.659,723.006l-1.747,6.851a14.972,14.972,0,0,1,2.063-1.1l.937-5.488c1.557-.023,2.727-1.7,3.2-3.917a11.583,11.583,0,0,0,.254-3.921.211.211,0,0,0-.413,0l-.964,4.536a.381.381,0,0,1-.451.293l-.022,0a.38.38,0,0,1-.293-.451l.96-4.514a.413.413,0,0,0-.318-.49l-.008,0a.413.413,0,0,0-.49.318l-.96,4.514a.381.381,0,0,1-.451.293l-.022,0a.38.38,0,0,1-.293-.451l.959-4.514a.413.413,0,0,0-.318-.49.421.421,0,0,0-.5.324l-.958,4.507a.381.381,0,0,1-.451.293l-.022,0a.38.38,0,0,1-.293-.451l.968-4.556a.211.211,0,0,0-.368-.18,9.9,9.9,0,0,0-1.488,3.694C193.7,720.312,194.088,722.318,195.659,723.006Z" transform="translate(-178.885 -713.854)" fill="#f6921e"/>
    </g>
    <g id="Group_4" data-name="Group 4" transform="translate(141.917 715.82)">
      <path id="Path_6" data-name="Path 6" d="M313.894,785.1h-8.037a3.472,3.472,0,0,0,.708,2.141,2.639,2.639,0,0,0,2.124.765,8.2,8.2,0,0,0,1.709-.209,15.8,15.8,0,0,0,2.232-.687,4.93,4.93,0,0,1,1.262,2.843,10.169,10.169,0,0,1-6.058,1.762,7.645,7.645,0,0,1-3.261-.618,5.5,5.5,0,0,1-2.132-1.731,6.927,6.927,0,0,1-1.159-2.627,15.07,15.07,0,0,1-.34-3.307,11.665,11.665,0,0,1,.417-3.2,7.309,7.309,0,0,1,1.267-2.55,5.894,5.894,0,0,1,2.163-1.7,7.155,7.155,0,0,1,3.075-.618,6.918,6.918,0,0,1,2.674.494,5.782,5.782,0,0,1,3.307,3.431,7.494,7.494,0,0,1,.448,2.627A10.926,10.926,0,0,1,313.894,785.1Zm-8.068-3.338h4.049v-.34a3.278,3.278,0,0,0-.506-1.885,1.716,1.716,0,0,0-1.518-.742,1.643,1.643,0,0,0-1.457.7A4.637,4.637,0,0,0,305.826,781.763Z" transform="translate(-300.943 -768.38)" fill="#52443b"/>
      <path id="Path_7" data-name="Path 7" d="M397.243,782.659v-.4a6.3,6.3,0,0,0-.371-2.519,1.393,1.393,0,0,0-1.391-.788,1.532,1.532,0,0,0-1.514,1.067,10.28,10.28,0,0,0-.433,3.539,10.6,10.6,0,0,0,.17,2.071,3.99,3.99,0,0,0,.495,1.345,1.946,1.946,0,0,0,.819.742,2.747,2.747,0,0,0,1.175.232,4.728,4.728,0,0,0,1.576-.309,8.216,8.216,0,0,0,1.854-.989,2.651,2.651,0,0,1,.572.448,4.366,4.366,0,0,1,.541.664,5.32,5.32,0,0,1,.433.788,4.83,4.83,0,0,1,.278.788,7.252,7.252,0,0,1-2.658,1.73,8.989,8.989,0,0,1-3.338.649,6.159,6.159,0,0,1-5.069-2.163,9.509,9.509,0,0,1-1.761-6.151,10.04,10.04,0,0,1,.572-3.554,7.328,7.328,0,0,1,1.514-2.5,6.159,6.159,0,0,1,2.164-1.483,6.734,6.734,0,0,1,2.55-.494,7.933,7.933,0,0,1,2.488.371,5.906,5.906,0,0,1,1.947,1.051,4.738,4.738,0,0,1,1.267,1.623,4.8,4.8,0,0,1,.448,2.086,2.063,2.063,0,0,1-.757,1.823,3.2,3.2,0,0,1-1.87.526A7.278,7.278,0,0,1,397.243,782.659Z" transform="translate(-373.259 -768.38)" fill="#52443b"/>
      <path id="Path_8" data-name="Path 8" d="M483.056,777.188a8.615,8.615,0,0,1,2.225,6.367,11.138,11.138,0,0,1-.479,3.369,7.316,7.316,0,0,1-1.391,2.581,6.052,6.052,0,0,1-2.241,1.638,7.689,7.689,0,0,1-3.06.572,7.4,7.4,0,0,1-3.044-.587,6.225,6.225,0,0,1-2.225-1.654,7.113,7.113,0,0,1-1.375-2.581,12.305,12.305,0,0,1,0-6.691,7.432,7.432,0,0,1,1.36-2.581,5.986,5.986,0,0,1,2.225-1.669,7.509,7.509,0,0,1,3.059-.587A6.814,6.814,0,0,1,483.056,777.188Zm-4.929,1.793a1.759,1.759,0,0,0-1.105.325,2.25,2.25,0,0,0-.669.881,4.562,4.562,0,0,0-.342,1.283,12.239,12.239,0,0,0-.093,1.561q0,1.3.078,2.241a6.061,6.061,0,0,0,.311,1.576,1.974,1.974,0,0,0,.654.942,1.817,1.817,0,0,0,1.105.309,1.738,1.738,0,0,0,1.8-1.19,10.251,10.251,0,0,0,.436-3.384,10.088,10.088,0,0,0-.436-3.384A1.694,1.694,0,0,0,478.127,778.981Z" transform="translate(-441.209 -768.38)" fill="#52443b"/>
      <path id="Path_9" data-name="Path 9" d="M559.758,758.366V746.282l-2.658.031a7.134,7.134,0,0,1-.185-1.684,7.534,7.534,0,0,1,.185-1.715l2.411.031a15.534,15.534,0,0,1-.154-2.071,5.186,5.186,0,0,1,5.409-5.378,13.429,13.429,0,0,1,4.728.865,5.016,5.016,0,0,1-.278,1.746,3.827,3.827,0,0,1-.773,1.437,8.742,8.742,0,0,0-2.38-.433,1.858,1.858,0,0,0-2.071,2.132,11.765,11.765,0,0,0,.124,1.731l4.049-.062a7.544,7.544,0,0,1,.185,1.715,7.144,7.144,0,0,1-.185,1.684l-3.709-.062v12.115a13.379,13.379,0,0,1-2.318.186A14.475,14.475,0,0,1,559.758,758.366Z" transform="translate(-512.07 -735.495)" fill="#81ba41"/>
      <path id="Path_10" data-name="Path 10" d="M637.061,777.188a8.616,8.616,0,0,1,2.226,6.367,11.136,11.136,0,0,1-.48,3.369,7.307,7.307,0,0,1-1.39,2.581,6.057,6.057,0,0,1-2.241,1.638,7.685,7.685,0,0,1-3.06.572,7.4,7.4,0,0,1-3.044-.587,6.226,6.226,0,0,1-2.226-1.654,7.116,7.116,0,0,1-1.375-2.581,12.305,12.305,0,0,1,0-6.691,7.427,7.427,0,0,1,1.36-2.581,5.985,5.985,0,0,1,2.225-1.669,7.51,7.51,0,0,1,3.06-.587A6.813,6.813,0,0,1,637.061,777.188Zm-4.93,1.793a1.758,1.758,0,0,0-1.1.325,2.246,2.246,0,0,0-.669.881,4.57,4.57,0,0,0-.342,1.283,12.262,12.262,0,0,0-.093,1.561q0,1.3.078,2.241a6.064,6.064,0,0,0,.311,1.576,1.973,1.973,0,0,0,.654.942,1.817,1.817,0,0,0,1.1.309,1.737,1.737,0,0,0,1.8-1.19,10.239,10.239,0,0,0,.436-3.384,10.076,10.076,0,0,0-.436-3.384A1.693,1.693,0,0,0,632.132,778.981Z" transform="translate(-568.233 -768.38)" fill="#81ba41"/>
      <path id="Path_11" data-name="Path 11" d="M729.145,777.188a8.616,8.616,0,0,1,2.226,6.367,11.136,11.136,0,0,1-.48,3.369,7.307,7.307,0,0,1-1.391,2.581,6.055,6.055,0,0,1-2.241,1.638,7.685,7.685,0,0,1-3.059.572,7.4,7.4,0,0,1-3.044-.587,6.227,6.227,0,0,1-2.226-1.654,7.115,7.115,0,0,1-1.375-2.581,12.305,12.305,0,0,1,0-6.691,7.429,7.429,0,0,1,1.36-2.581,5.987,5.987,0,0,1,2.226-1.669,7.509,7.509,0,0,1,3.06-.587A6.813,6.813,0,0,1,729.145,777.188Zm-4.93,1.793a1.758,1.758,0,0,0-1.1.325,2.246,2.246,0,0,0-.669.881,4.566,4.566,0,0,0-.342,1.283,12.239,12.239,0,0,0-.093,1.561q0,1.3.078,2.241a6.059,6.059,0,0,0,.311,1.576,1.973,1.973,0,0,0,.654.942,1.817,1.817,0,0,0,1.1.309,1.737,1.737,0,0,0,1.8-1.19,10.236,10.236,0,0,0,.436-3.384,10.073,10.073,0,0,0-.436-3.384A1.693,1.693,0,0,0,724.216,778.981Z" transform="translate(-644.184 -768.38)" fill="#81ba41"/>
      <path id="Path_12" data-name="Path 12" d="M815.709,743.217a6.474,6.474,0,0,1,2.875.68v-7.48l.186-.216h1.885a2.654,2.654,0,0,1,2.055.649,3.436,3.436,0,0,1,.572,2.257V754.5a2.507,2.507,0,0,0,.865,2.225,5.206,5.206,0,0,1-.587,1.391,3.515,3.515,0,0,1-.9,1.082,3.754,3.754,0,0,1-3.307-1.73,5.931,5.931,0,0,1-4.451,1.947,4.463,4.463,0,0,1-3.987-2.163,12.828,12.828,0,0,1-.912-9.288,7.945,7.945,0,0,1,1.313-2.55,5.891,5.891,0,0,1,1.962-1.622A5.29,5.29,0,0,1,815.709,743.217Zm.6,12.3a2.907,2.907,0,0,0,2.273-1.205v-6.768a4.447,4.447,0,0,0-2.024-.742q-2.118,0-2.118,4.636Q814.442,755.518,816.311,755.518Z" transform="translate(-720.426 -736.077)" fill="#81ba41"/>
    </g>
  </g>
</svg>
